<?xml version="1.0" encoding="UTF-8" standalone="no"?>
<!DOCTYPE svg PUBLIC "-//W3C//DTD SVG 1.1//EN" "http://www.w3.org/Graphics/SVG/1.1/DTD/svg11.dtd">
<svg width="100%" height="100%" viewBox="0 0 667 467" version="1.1" xmlns="http://www.w3.org/2000/svg" xmlns:xlink="http://www.w3.org/1999/xlink" xml:space="preserve" xmlns:serif="http://www.serif.com/" style="fill-rule:evenodd;clip-rule:evenodd;stroke-linejoin:round;stroke-miterlimit:2;">
<g id="puterdogsLogo">
<g>
<path d="M529.167,395.026c-10.895,-2.083 -20.851,-6.825 -29.167,-13.524c-8.316,6.7 -18.272,11.441 -29.167,13.524l0,39.884c0,16.097 13.069,29.166 29.167,29.166c16.098,0 29.167,-13.069 29.167,-29.166l-0,-39.884Zm-333.334,0c-10.895,-2.083 -20.851,-6.825 -29.166,-13.524c-8.316,6.7 -18.272,11.441 -29.167,13.524l-0,39.884c-0,16.097 13.069,29.166 29.167,29.166c16.097,0 29.166,-13.069 29.166,-29.166l0,-39.884Zm133.676,-313.737c2.506,4.34 5.152,4.324 7.674,-0.046c9.2,-15.938 32.575,-56.436 44.489,-77.076c1.488,-2.578 4.239,-4.167 7.217,-4.167c2.977,-0 5.729,1.589 7.217,4.167c11.068,19.175 32.029,55.49 42.325,73.328c3.721,6.447 10.599,10.418 18.043,10.418c21.365,0 65.687,0 87.052,0c7.444,0 14.322,-3.971 18.043,-10.418c10.296,-17.838 31.257,-54.153 42.325,-73.328c1.488,-2.578 4.24,-4.167 7.217,-4.167c2.978,-0 5.729,1.589 7.217,4.167c11.925,20.66 35.334,61.216 44.515,77.122c2.505,4.34 3.824,9.263 3.824,14.274c-0,44.621 -0,270.918 -0,317.35c-0,2.211 -0.878,4.33 -2.441,5.893c-1.563,1.563 -3.683,2.441 -5.893,2.441l-108.333,-0l-0,-25.543c32.861,-4.073 58.333,-32.13 58.333,-66.09c0,-5.749 -4.667,-10.416 -10.416,-10.416c-5.749,-0 -10.417,4.667 -10.417,10.416c-0,25.259 -20.507,45.765 -45.765,45.765c-13.487,0 -25.617,-5.849 -33.998,-15.145c-1.976,-2.191 -4.787,-3.442 -7.737,-3.442c-2.95,0 -5.761,1.251 -7.737,3.442c-8.381,9.296 -20.511,15.145 -33.998,15.145c-25.258,0 -45.765,-20.506 -45.765,-45.765c-0,-5.749 -4.668,-10.416 -10.417,-10.416c-5.749,-0 -10.416,4.667 -10.416,10.416c-0,33.96 25.472,62.017 58.333,66.09l-0,25.543l-233.333,-0l-0,-25.543c32.86,-4.073 58.333,-32.13 58.333,-66.09c-0,-5.749 -4.668,-10.416 -10.417,-10.416c-5.749,-0 -10.416,4.667 -10.416,10.416c-0,25.259 -20.507,45.765 -45.765,45.765c-13.487,0 -25.618,-5.849 -33.999,-15.145c-1.975,-2.191 -4.787,-3.442 -7.736,-3.442c-2.95,0 -5.762,1.251 -7.737,3.442c-8.381,9.296 -20.512,15.145 -33.998,15.145c-25.259,0 -45.765,-20.506 -45.765,-45.765c-0,-5.749 -4.668,-10.416 -10.417,-10.416c-5.749,-0 -10.417,4.667 -10.417,10.416c0,33.96 25.473,62.017 58.334,66.09l-0,25.543l-108.334,-0c-2.21,-0 -4.329,-0.878 -5.892,-2.441c-1.563,-1.563 -2.441,-3.682 -2.441,-5.893c-0,-46.414 -0,-272.552 -0,-317.298c0,-5.045 1.328,-10.002 3.85,-14.372c9.199,-15.938 32.575,-56.436 44.488,-77.076c1.489,-2.578 4.24,-4.167 7.218,-4.167c2.977,-0 5.728,1.589 7.217,4.167c11.068,19.175 32.029,55.49 42.324,73.328c3.722,6.447 10.6,10.418 18.044,10.418c21.365,0 65.687,0 87.052,0c7.443,0 14.322,-3.971 18.043,-10.418c10.296,-17.838 31.257,-54.153 42.324,-73.328c1.489,-2.578 4.24,-4.167 7.218,-4.167c2.977,-0 5.729,1.589 7.217,4.167c11.925,20.66 35.333,61.216 44.514,77.122Zm191.324,239.958l-41.666,-0c-11.499,-0 -20.834,-9.335 -20.834,-20.834c0,-11.498 9.335,-20.833 20.834,-20.833l41.666,0c11.499,0 20.834,9.335 20.834,20.833c-0,11.499 -9.335,20.834 -20.834,20.834Zm-333.333,-0l-41.667,-0c-11.498,-0 -20.833,-9.335 -20.833,-20.834c-0,-11.498 9.335,-20.833 20.833,-20.833l41.667,0c11.498,0 20.833,9.335 20.833,20.833c0,11.499 -9.335,20.834 -20.833,20.834Zm256.944,-129.167l0,41.667c0,11.498 -9.335,20.833 -20.833,20.833c-11.498,0 -20.833,-9.335 -20.833,-20.833l-0,-41.667c-0,-11.498 9.335,-20.833 20.833,-20.833c11.498,-0 20.833,9.335 20.833,20.833Zm152.778,0l0,41.667c0,11.498 -9.335,20.833 -20.833,20.833c-11.498,0 -20.833,-9.335 -20.833,-20.833l-0,-41.667c-0,-11.498 9.335,-20.833 20.833,-20.833c11.498,-0 20.833,9.335 20.833,20.833Zm-486.111,0l0,41.667c0,11.498 -9.335,20.833 -20.833,20.833c-11.498,0 -20.834,-9.335 -20.834,-20.833l0,-41.667c0,-11.498 9.336,-20.833 20.834,-20.833c11.498,-0 20.833,9.335 20.833,20.833Zm152.778,0l-0,41.667c-0,11.498 -9.335,20.833 -20.833,20.833c-11.499,0 -20.834,-9.335 -20.834,-20.833l0,-41.667c0,-11.498 9.335,-20.833 20.834,-20.833c11.498,-0 20.833,9.335 20.833,20.833Z" style="fill:#b91c1c;"/>
</g>
</g>
</svg>